<?xml version="1.0" standalone="no"?>
<!DOCTYPE svg PUBLIC "-//W3C//DTD SVG 20010904//EN"
 "http://www.w3.org/TR/2001/REC-SVG-20010904/DTD/svg10.dtd">
<svg version="1.0" xmlns="http://www.w3.org/2000/svg"
 width="120.000000pt" height="120.000000pt" viewBox="0 0 120.000000 120.000000"
 preserveAspectRatio="xMidYMid meet">
<metadata>
Created by potrace 1.11, written by Peter Selinger 2001-2013
</metadata>
<g transform="translate(0.000000,120.000000) scale(0.100000,-0.100000)"
fill="#000000" stroke="none">
<path d="M805 1142 c-33 -32 -74 -74 -90 -92 -32 -37 -201 -269 -275 -380 -80
-119 -187 -254 -242 -306 -71 -67 -116 -91 -180 -93 -15 -1 -18 -11 -18 -66 0
-40 4 -65 11 -65 6 0 48 20 93 44 45 25 107 49 137 54 55 11 421 8 494 -3 190
-28 282 -54 319 -92 l27 -27 -7 29 c-9 38 -32 84 -53 109 -37 43 -124 57 -381
61 -189 3 -245 0 -355 -20 l-40 -8 82 84 c96 99 208 235 313 380 168 231 305
380 394 424 l50 25 -110 0 -110 0 -59 -58z"/>
<path d="M1160 1180 c49 -49 4 -143 -157 -323 -30 -33 -51 -62 -48 -65 7 -7
106 56 182 115 l63 48 0 123 0 122 -30 0 -30 0 20 -20z"/>
<path d="M136 15 c-3 -9 0 -15 9 -15 9 0 12 6 9 15 -4 8 -7 15 -9 15 -2 0 -5
-7 -9 -15z"/>
<path d="M271 14 c0 -11 3 -14 6 -6 3 7 2 16 -1 19 -3 4 -6 -2 -5 -13z"/>
<path d="M341 14 c0 -11 3 -14 6 -6 3 7 2 16 -1 19 -3 4 -6 -2 -5 -13z"/>
<path d="M500 13 c0 -12 3 -14 8 -7 4 7 16 14 27 17 15 4 14 5 -7 6 -21 1 -28
-4 -28 -16z"/>
<path d="M706 15 c-3 -9 0 -15 9 -15 9 0 12 6 9 15 -4 8 -7 15 -9 15 -2 0 -5
-7 -9 -15z"/>
<path d="M789 13 c-13 -15 -12 -15 8 -3 18 12 24 12 40 -1 16 -13 17 -13 4 4
-17 21 -35 22 -52 0z"/>
<path d="M1176 15 c-3 -9 0 -15 9 -15 9 0 12 6 9 15 -4 8 -7 15 -9 15 -2 0 -5
-7 -9 -15z"/>
<path d="M88 3 c7 -3 16 -2 19 1 4 3 -2 6 -13 5 -11 0 -14 -3 -6 -6z"/>
<path d="M188 3 c7 -3 16 -2 19 1 4 3 -2 6 -13 5 -11 0 -14 -3 -6 -6z"/>
<path d="M588 3 c7 -3 16 -2 19 1 4 3 -2 6 -13 5 -11 0 -14 -3 -6 -6z"/>
<path d="M898 3 c7 -3 16 -2 19 1 4 3 -2 6 -13 5 -11 0 -14 -3 -6 -6z"/>
<path d="M948 3 c6 -2 18 -2 25 0 6 3 1 5 -13 5 -14 0 -19 -2 -12 -5z"/>
<path d="M1028 3 c7 -3 16 -2 19 1 4 3 -2 6 -13 5 -11 0 -14 -3 -6 -6z"/>
<path d="M1138 3 c7 -3 16 -2 19 1 4 3 -2 6 -13 5 -11 0 -14 -3 -6 -6z"/>
</g>
</svg>
