<?xml version="1.0" standalone="no"?>
<!DOCTYPE svg PUBLIC "-//W3C//DTD SVG 20010904//EN"
 "http://www.w3.org/TR/2001/REC-SVG-20010904/DTD/svg10.dtd">
<svg version="1.0" xmlns="http://www.w3.org/2000/svg"
 width="100.000000pt" height="100.000000pt" viewBox="0 0 100.000000 100.000000"
 preserveAspectRatio="xMidYMid meet">
<metadata>
Created by potrace 1.11, written by Peter Selinger 2001-2013
</metadata>
<g transform="translate(0.000000,100.000000) scale(0.100000,-0.100000)"
fill="#000000" stroke="none">
<path d="M303 675 c-144 -72 -252 -222 -217 -304 17 -41 90 -76 142 -67 47 7
127 62 210 142 55 54 59 60 22 33 -25 -19 -53 -41 -62 -49 -9 -8 -49 -33 -89
-54 -81 -44 -161 -55 -179 -26 -28 45 13 140 97 224 121 121 308 164 221 50
-12 -16 -25 -31 -28 -34 -3 -3 -12 -14 -20 -24 -14 -18 -11 -18 25 3 105 59
94 141 -19 141 -18 0 -64 -16 -103 -35z"/>
<path d="M629 690 c-64 -22 -101 -49 -114 -85 -8 -23 -6 -30 14 -46 13 -10 31
-19 40 -18 11 0 10 3 -6 11 -13 6 -23 17 -23 24 0 22 79 73 138 90 69 20 185
16 208 -8 26 -26 2 -71 -60 -111 -52 -34 -135 -71 -143 -64 -2 3 21 35 52 72
30 37 55 71 55 75 0 4 -9 15 -20 25 -17 16 -20 16 -20 2 0 -8 -6 -22 -12 -29
-7 -7 -39 -48 -71 -90 -58 -79 -72 -87 -109 -67 -11 6 -22 8 -25 5 -4 -3 10
-13 30 -21 l37 -15 -25 -39 c-37 -60 -41 -87 -15 -101 12 -7 20 -8 17 -3 -12
19 66 159 82 148 5 -2 34 2 65 10 117 31 206 95 206 150 0 89 -157 133 -301
85z"/>
</g>
</svg>
